<svg xmlns="http://www.w3.org/2000/svg" width="229" height="39" viewBox="0 0 229 39">
    <g fill="none" fill-rule="evenodd">
        <path fill="#FFF" d="M126.233 27.77l-1.431-4.228h-6.518l-1.43 4.228a.58.58 0 0 1-.55.394h-1.52a.58.58 0 0 1-.545-.777l5.756-15.94a.58.58 0 0 1 .545-.384h2.054a.58.58 0 0 1 .545.383l5.755 15.941a.58.58 0 0 1-.545.777h-1.567a.58.58 0 0 1-.55-.394zm-4.726-13.863l-2.547 7.502h5.166l-2.547-7.502h-.072zm16.453 14.541c-4.8 0-7.833-3.39-7.833-8.84 0-5.416 3.057-8.829 7.833-8.829 3.62 0 6.413 2.08 7.132 5.262a.563.563 0 0 1-.55.687h-1.517a.58.58 0 0 1-.557-.416 4.055 4.055 0 0 0-.087-.268c-.674-1.802-2.35-2.942-4.421-2.942-3.105 0-5.12 2.547-5.12 6.506 0 3.993 1.991 6.517 5.132 6.517 2.101 0 3.668-.95 4.374-2.59.033-.077.07-.176.11-.298a.58.58 0 0 1 .55-.394h1.514a.56.56 0 0 1 .54.71c-.864 3.098-3.438 4.895-7.1 4.895zm20.739-.678l-1.431-4.228h-6.518l-1.43 4.228a.58.58 0 0 1-.55.394h-1.52a.58.58 0 0 1-.545-.777l5.756-15.94a.58.58 0 0 1 .545-.384h2.054a.58.58 0 0 1 .545.383l5.755 15.941a.58.58 0 0 1-.545.777h-1.567a.58.58 0 0 1-.55-.394zm-4.725-13.863l-2.548 7.502h5.166l-2.547-7.502h-.071zm10.42-2.844h5.451c5.084 0 8.094 3.129 8.094 8.52 0 5.405-2.998 8.58-8.094 8.58h-5.452a.58.58 0 0 1-.58-.58v-15.94c0-.32.26-.58.58-.58zm2.074 2.288v12.514h3.128c3.626 0 5.63-2.216 5.63-6.257 0-4.03-2.015-6.257-5.63-6.257h-3.128zm25.15 13.093v1.14c0 .32-.26.58-.58.58h-9.695a.58.58 0 0 1-.58-.58V11.643c0-.32.26-.58.58-.58h9.695c.32 0 .58.26.58.58v1.128c0 .32-.26.58-.58.58h-7.62v5h7.182c.32 0 .58.26.58.58v1.045c0 .32-.26.58-.58.58h-7.182v5.309h7.62c.32 0 .58.26.58.58zm19.736 1.72h-1.27a.58.58 0 0 1-.58-.58V15.578h-.083l-5.007 12.226a.58.58 0 0 1-.536.36h-1.19a.58.58 0 0 1-.536-.36l-5.02-12.226h-.082v12.006c0 .32-.26.58-.58.58h-1.258a.58.58 0 0 1-.58-.58V11.643c0-.32.26-.58.58-.58h2.1a.58.58 0 0 1 .537.362l5.387 13.266h.094l5.376-13.266a.58.58 0 0 1 .537-.362h2.11c.321 0 .58.26.58.58v15.94c0 .321-.259.58-.58.58zm10.847 0h-1.495a.58.58 0 0 1-.58-.58V21.16l-5.497-9.22a.58.58 0 0 1 .498-.877h1.608a.58.58 0 0 1 .501.29l4.194 7.26h.083l4.193-7.26a.58.58 0 0 1 .502-.29h1.583a.58.58 0 0 1 .498.877l-5.508 9.22v6.424c0 .32-.26.58-.58.58z"/>
        <path fill="#FFF" d="M55.717 28.164h-2.964a.58.58 0 0 1-.58-.58V11.643c0-.32.26-.58.58-.58h2.598a.58.58 0 0 1 .468.238l7.078 9.705h.095v-9.363c0-.32.26-.58.58-.58h2.964c.32 0 .58.26.58.58v15.94c0 .321-.26.58-.58.58h-2.561a.58.58 0 0 1-.47-.239l-7.113-9.798h-.095v9.458c0 .32-.26.58-.58.58zm25.99-2.929v2.349c0 .32-.259.58-.579.58h-10.56a.58.58 0 0 1-.58-.58V11.643c0-.32.26-.58.58-.58h10.56c.32 0 .58.26.58.58v2.348c0 .32-.26.58-.58.58h-6.79v3.401h6.352c.32 0 .58.26.58.58v2.04c0 .32-.26.58-.58.58h-6.353v3.484h6.791c.32 0 .58.26.58.58zm3.138-2.108h2.313c.434 0 .833.244 1.031.63.082.16.165.284.25.374.569.597 1.543.928 2.682.928 1.695 0 2.797-.759 2.797-1.802 0-.948-.735-1.433-2.761-1.824l-1.754-.332c-3.413-.64-5.178-2.311-5.178-4.918 0-3.295 2.855-5.416 6.79-5.416 3.718 0 6.118 1.577 6.73 4.11a1.02 1.02 0 0 1-.99 1.258H94.73c-.468 0-.89-.28-1.07-.712a1.186 1.186 0 0 0-.11-.21c-.454-.667-1.37-1.045-2.5-1.045-1.577 0-2.513.711-2.513 1.719 0 .9.782 1.398 2.643 1.753l1.753.332c3.65.7 5.31 2.18 5.31 4.87 0 3.437-2.69 5.618-7.206 5.618-3.81 0-6.466-1.569-7.033-4.301a.857.857 0 0 1 .84-1.032zm23.417 5.037h-3.178a.58.58 0 0 1-.58-.58V14.57h-4.136a.58.58 0 0 1-.58-.58v-2.348c0-.32.26-.58.58-.58h12.61c.32 0 .58.26.58.58v2.348c0 .32-.26.58-.58.58h-4.136v13.013c0 .32-.26.58-.58.58z"/>
        <path fill="#FFF" d="M23.537 11.06v5.642l-5.7-5.642h-4.94V8.155L10.24 5.447a5.032 5.032 0 0 1-.003-.181c0-2.676 2.127-4.846 4.75-4.846 2.624 0 4.75 2.17 4.75 4.846v4.657l1.9 1.936V5.266c0-2.676 2.127-4.846 4.75-4.846 2.624 0 4.75 2.17 4.75 4.846 0 .06 0 .12-.003.18l-2.657 2.709v2.905h-4.94zm12.939 5.642l1.443-1.473a4.854 4.854 0 0 1 2.718 4.381 4.854 4.854 0 0 1-2.718 4.381l-1.443-1.473h-6.099v-5.816h6.099zm-6.099 7.754h4.918a4.86 4.86 0 0 1 2.492 4.264c0 2.487-1.835 4.536-4.2 4.814l-3.21-3.272v-5.806zm-1.9 6.61l2.657 2.707c.002.06.003.12.003.181 0 2.676-2.126 4.846-4.75 4.846-2.623 0-4.75-2.17-4.75-4.846v-4.645l-1.9-1.939v6.584c0 2.676-2.126 4.846-4.75 4.846-2.623 0-4.75-2.17-4.75-4.846l.003-.18 2.657-2.709V28.16h4.94v-5.642l5.7 5.642h4.94v2.905zm1.9-16.302V8.958l3.21-3.272c2.365.278 4.2 2.327 4.2 4.814a4.86 4.86 0 0 1-2.492 4.264h-4.918zM4.9 22.518L3.455 23.99A4.854 4.854 0 0 1 .737 19.61a4.854 4.854 0 0 1 2.718-4.381L4.9 16.702h6.098v5.816H4.9zm1.18-7.754A4.86 4.86 0 0 1 3.587 10.5c0-2.487 1.836-4.536 4.2-4.814l3.21 3.272v5.806H6.08zm4.918 9.692v5.806l-3.21 3.272c-2.364-.278-4.2-2.327-4.2-4.814a4.86 4.86 0 0 1 2.492-4.264h4.918z"/>
    </g>
</svg>
